<svg xmlns="http://www.w3.org/2000/svg" width="1660" height="980" viewBox="0 0 1660 980" role="img" aria-label="option5-d bench aligned create behavior placement render"><rect width="1660" height="980" fill="#F4F5F6"/><style>
  .panelTitle{font:400 38px/1.2 "IBM Plex Sans",Arial,sans-serif;fill:#0A0B0C}
  .pageTitle{font:400 58px/1.2 "IBM Plex Sans",Arial,sans-serif;fill:#0A0B0C}
  .metric{font:400 58px/1 "IBM Plex Sans",Arial,sans-serif;fill:#0A0B0C}
  .h2{font:400 32px/1.25 "IBM Plex Sans",Arial,sans-serif;fill:#0A0B0C}
  .h3{font:400 22px/1.25 "IBM Plex Sans",Arial,sans-serif;fill:#0A0B0C}
  .body{font:400 22px/1.35 "IBM Plex Sans",Arial,sans-serif;fill:#0A0B0C}
  .small{font:400 18px/1.35 "IBM Plex Sans",Arial,sans-serif;fill:#626C75}
  .muted{font:400 20px/1.35 "IBM Plex Sans",Arial,sans-serif;fill:#626C75}
  .label{font:400 16px/1.2 "IBM Plex Sans",Arial,sans-serif;fill:#626C75;letter-spacing:1px}
  .under{font:400 19px/1.25 "IBM Plex Sans",Arial,sans-serif;fill:#0A0B0C;text-decoration:underline;text-underline-offset:5px}
  .mutedText{fill:#626C75}
  .inkText{fill:#0A0B0C}
  .fixedText{font:400 23px/1.25 "IBM Plex Sans",Arial,sans-serif;fill:#FDFCFB}
  .fixedSmall{font:400 15px/1.25 "IBM Plex Sans",Arial,sans-serif;fill:#FDFCFB;opacity:.82}
</style><g transform="translate(0,-2955)"><g id="option5-d"><text x="80" y="3010" class="panelTitle" >5D. Active-list opener, inline form</text><rect x="80" y="3040" width="1540" height="850" fill="#FDFCFB" stroke="#D3D7DB" /><rect x="106" y="3075" width="64" height="780" fill="#FDFCFB" stroke="none" /><line x1="169.5" y1="3125" x2="169.5" y2="3815" stroke="#D3D7DB" stroke-width="1" /><circle cx="138" cy="3167" r="15" fill="#3572B3"/><rect x="129" y="3255" width="18" height="18" fill="none" stroke="#0A0B0C" stroke-width="2"/><path d="M129 3338H148M129 3345H142M129 3352H139" stroke="#0A0B0C" stroke-width="2" fill="none"/><path d="M131 3435H145M138 3428V3442" stroke="#0A0B0C" stroke-width="2" stroke-linecap="square"/><circle cx="138" cy="3533" r="13" fill="none" stroke="#0A0B0C" stroke-width="2"/><path d="M310 3090C410 3068 500 3070 610 3088S830 3104 960 3085 1210 3070 1420 3088" fill="none" stroke="#3572B3" stroke-width="1.5" opacity="0.18"/><path d="M310 3103C430 3080 520 3083 630 3099S845 3111 975 3091 1200 3080 1420 3100" fill="none" stroke="#3572B3" stroke-width="1.5" opacity="0.14"/><circle cx="560" cy="3092" r="6" fill="#C84A31"/><circle cx="910" cy="3084" r="6" fill="#3572B3"/><circle cx="1200" cy="3090" r="6" fill="#C84A31"/><text x="360" y="3230" class="pageTitle" >Behaviors</text><line x1="360" y1="3285" x2="1480" y2="3285" stroke="#D3D7DB" stroke-width="1" /><text x="360" y="3369" class="h2" >Overall adherence</text><text x="360" y="3425" class="metric" >64.7%</text><text x="360" y="3457" class="muted" >Range: Jun 1-30, 2026</text><text x="360" y="3499" class="small" >Completed</text><text x="570" y="3499" class="small" >112</text><text x="360" y="3529" class="small" >Not Completed</text><text x="570" y="3529" class="small" >61</text><text x="870" y="3387" class="small" >7 days</text><text x="962" y="3387" class="small inkText" >30 days</text><text x="1070" y="3387" class="small" >90 days</text><rect x="870" y="3420" width="21" height="21" fill="#FDFCFB" stroke="#D3D7DB" /><rect x="897" y="3420" width="21" height="21" fill="#FDFCFB" stroke="#D3D7DB" /><rect x="924" y="3420" width="21" height="21" fill="#FDFCFB" stroke="#D3D7DB" /><rect x="951" y="3420" width="21" height="21" fill="#FDFCFB" stroke="#D3D7DB" /><rect x="978" y="3420" width="21" height="21" fill="#FDFCFB" stroke="#D3D7DB" /><rect x="1005" y="3420" width="21" height="21" fill="#FDFCFB" stroke="#D3D7DB" /><rect x="1032" y="3420" width="21" height="21" fill="#FDFCFB" stroke="#D3D7DB" /><rect x="870" y="3447" width="21" height="21" fill="#8FB5DA" stroke="#D3D7DB" /><rect x="897" y="3447" width="21" height="21" fill="#3572B3" stroke="#D3D7DB" /><rect x="924" y="3447" width="21" height="21" fill="#8FB5DA" stroke="#D3D7DB" /><rect x="951" y="3447" width="21" height="21" fill="#8FB5DA" stroke="#D3D7DB" /><rect x="978" y="3447" width="21" height="21" fill="#3572B3" stroke="#D3D7DB" /><rect x="1005" y="3447" width="21" height="21" fill="#8FB5DA" stroke="#D3D7DB" /><rect x="1032" y="3447" width="21" height="21" fill="#FDFCFB" stroke="#D3D7DB" /><rect x="870" y="3474" width="21" height="21" fill="#3572B3" stroke="#D3D7DB" /><rect x="897" y="3474" width="21" height="21" fill="#3572B3" stroke="#D3D7DB" /><rect x="924" y="3474" width="21" height="21" fill="#3572B3" stroke="#D3D7DB" /><rect x="951" y="3474" width="21" height="21" fill="#3572B3" stroke="#D3D7DB" /><rect x="978" y="3474" width="21" height="21" fill="#3572B3" stroke="#D3D7DB" /><rect x="1005" y="3474" width="21" height="21" fill="#8FB5DA" stroke="#D3D7DB" /><rect x="1032" y="3474" width="21" height="21" fill="#C84A31" stroke="#D3D7DB" /><rect x="870" y="3501" width="21" height="21" fill="#3572B3" stroke="#D3D7DB" /><rect x="897" y="3501" width="21" height="21" fill="#3572B3" stroke="#D3D7DB" /><rect x="924" y="3501" width="21" height="21" fill="#3572B3" stroke="#D3D7DB" /><rect x="951" y="3501" width="21" height="21" fill="#3572B3" stroke="#D3D7DB" /><rect x="978" y="3501" width="21" height="21" fill="#3572B3" stroke="#D3D7DB" /><rect x="1005" y="3501" width="21" height="21" fill="#8FB5DA" stroke="#D3D7DB" /><rect x="1032" y="3501" width="21" height="21" fill="#FDFCFB" stroke="#D3D7DB" /><text x="360" y="3638" class="h2" >Active behaviors</text><text x="1310" y="3638" class="under" >Create behavior</text><line x1="360" y1="3665" x2="1480" y2="3665" stroke="#D3D7DB" stroke-width="1" /><text x="360" y="3724" class="h2" >Create behavior</text><text x="360" y="3772" class="label" >Title</text><line x1="360" y1="3794" x2="1440" y2="3794" stroke="#D3D7DB" stroke-width="1" /><text x="360" y="3788" class="small inkText" >Stretch</text><text x="360" y="3824" class="label" >Category</text><line x1="360" y1="3846" x2="1440" y2="3846" stroke="#D3D7DB" stroke-width="1" /><text x="360" y="3840" class="small inkText" >No category</text><text x="360" y="3884" class="h3" >Schedule</text><text x="360" y="3932" class="label" >Recurrence</text><line x1="360" y1="3954" x2="570" y2="3954" stroke="#D3D7DB" stroke-width="1" /><text x="360" y="3948" class="small inkText" >Daily</text><text x="610" y="3932" class="label" >Every</text><line x1="610" y1="3954" x2="780" y2="3954" stroke="#D3D7DB" stroke-width="1" /><text x="610" y="3948" class="small inkText" >1 day</text><text x="360" y="3990" class="label" >Time</text><line x1="360" y1="4012" x2="570" y2="4012" stroke="#D3D7DB" stroke-width="1" /><text x="360" y="4006" class="small inkText" >Exact time</text><text x="610" y="3990" class="label" >Start</text><line x1="610" y1="4012" x2="780" y2="4012" stroke="#D3D7DB" stroke-width="1" /><text x="610" y="4006" class="small inkText" >09:00</text><text x="360" y="4038" class="under" >Add time</text><line x1="360" y1="4074" x2="1460" y2="4074" stroke="#D3D7DB" stroke-width="1" /><rect x="360" y="4108" width="14" height="14" fill="#3572B3" stroke="#D3D7DB" /><path d="M363 4115L366 4118L371 4110" stroke="#FDFCFB" stroke-width="1.5" fill="none"/><text x="384" y="4120" class="small inkText" >Browser reminders</text><rect x="590" y="4108" width="14" height="14" fill="none" stroke="#D3D7DB" /><text x="614" y="4120" class="small inkText" >Email reminders</text><text x="360" y="4178" class="under" >Save behavior</text><text x="500" y="4178" class="under mutedText" >Cancel</text></g></g></svg>